<?xml version="1.0" standalone="no"?>
<!DOCTYPE svg PUBLIC "-//W3C//DTD SVG 20010904//EN"
 "http://www.w3.org/TR/2001/REC-SVG-20010904/DTD/svg10.dtd">
<svg version="1.0" xmlns="http://www.w3.org/2000/svg"
 width="500.000000pt" height="500.000000pt" viewBox="0 0 500.000000 500.000000"
 preserveAspectRatio="xMidYMid meet">
<metadata>
Created by potrace 1.11, written by Peter Selinger 2001-2013
</metadata>
<g transform="translate(0.000000,500.000000) scale(0.100000,-0.100000)"
fill="#000000" stroke="none">
<path d="M1021 4769 c-91 -18 -171 -88 -203 -177 -11 -30 -13 -432 -13 -2102
l0 -2065 21 -45 c31 -67 68 -106 132 -137 l57 -28 1485 0 1485 0 57 28 c64 31
101 70 132 137 l21 45 0 2070 0 2070 -21 45 c-31 67 -68 106 -132 137 l-57 28
-1460 2 c-803 0 -1480 -3 -1504 -8z m2816 -429 c64 -38 63 -32 63 -532 0 -432
-1 -455 -20 -485 -41 -67 57 -63 -1380 -63 -1437 0 -1339 -4 -1380 63 -19 30
-20 53 -20 485 0 500 -1 494 63 532 31 20 60 20 1337 20 1277 0 1306 0 1337
-20z m-2226 -1769 l29 -29 0 -212 0 -212 -29 -29 -29 -29 -212 0 -212 0 -29
29 -29 29 0 212 0 212 29 29 29 29 212 0 212 0 29 -29z m740 0 l29 -29 0 -212
0 -212 -29 -29 -29 -29 -212 0 -212 0 -29 29 -29 29 0 212 0 212 29 29 29 29
212 0 212 0 29 -29z m740 0 l29 -29 0 -212 0 -212 -29 -29 -29 -29 -212 0
-212 0 -29 29 -29 29 0 212 0 212 29 29 29 29 212 0 212 0 29 -29z m776 -4
l28 -27 0 -210 0 -210 -28 -27 -27 -28 -210 0 -210 0 -27 28 -28 27 0 209 c0
195 1 210 20 231 11 12 29 26 40 31 11 5 109 7 217 6 l198 -2 27 -28z m0 -770
l28 -27 0 -605 0 -605 -28 -27 -27 -28 -210 0 -210 0 -27 28 -28 27 0 604 c0
590 0 604 20 626 11 12 29 26 40 31 11 5 109 7 217 6 l198 -2 27 -28z m-2256
-6 l29 -29 0 -212 0 -212 -29 -29 -29 -29 -212 0 -212 0 -29 29 -29 29 0 212
0 212 29 29 29 29 212 0 212 0 29 -29z m740 0 l29 -29 0 -212 0 -212 -29 -29
-29 -29 -212 0 -212 0 -29 29 -29 29 0 212 0 212 29 29 29 29 212 0 212 0 29
-29z m740 0 l29 -29 0 -212 0 -212 -29 -29 -29 -29 -212 0 -212 0 -29 29 -29
29 0 212 0 212 29 29 29 29 212 0 212 0 29 -29z m-1480 -780 l29 -29 0 -212 0
-212 -29 -29 -29 -29 -212 0 -212 0 -29 29 -29 29 0 212 0 212 29 29 29 29
212 0 212 0 29 -29z m740 0 l29 -29 0 -212 0 -212 -29 -29 -29 -29 -212 0
-212 0 -29 29 -29 29 0 212 0 212 29 29 29 29 212 0 212 0 29 -29z m740 0 l29
-29 0 -212 0 -212 -29 -29 -29 -29 -212 0 -212 0 -29 29 -29 29 0 212 0 212
29 29 29 29 212 0 212 0 29 -29z"/>
</g>
</svg>
